<svg xmlns="http://www.w3.org/2000/svg" xmlns:xlink="http://www.w3.org/1999/xlink" width="1080" zoomAndPan="magnify" viewBox="0 0 810 809.999993" height="1080" preserveAspectRatio="xMidYMid meet" version="1.0"><defs><clipPath id="fa2e5bf628"><path d="M 20.988281 93.835938 L 776.988281 93.835938 L 776.988281 696.832031 L 20.988281 696.832031 Z M 20.988281 93.835938 " clip-rule="nonzero"/></clipPath><clipPath id="d913cc22a0"><path d="M 95.988281 93.835938 L 702.175781 93.835938 C 743.597656 93.835938 777.175781 127.414062 777.175781 168.835938 L 777.175781 621.574219 C 777.175781 662.992188 743.597656 696.574219 702.175781 696.574219 L 95.988281 696.574219 C 54.566406 696.574219 20.988281 662.992188 20.988281 621.574219 L 20.988281 168.835938 C 20.988281 127.414062 54.566406 93.835938 95.988281 93.835938 Z M 95.988281 93.835938 " clip-rule="nonzero"/></clipPath></defs><rect x="-81" width="972" fill="#ffffff" y="-80.999999" height="971.999992" fill-opacity="1"/><rect x="-81" width="972" fill="#ffffff" y="-80.999999" height="971.999992" fill-opacity="1"/><g clip-path="url(#fa2e5bf628)"><g clip-path="url(#d913cc22a0)"><path stroke-linecap="butt" transform="matrix(0.75, 0, 0, 0.75, 20.989053, 93.835371)" fill="none" stroke-linejoin="miter" d="M 99.998976 0.000754961 L 908.249017 0.000754961 C 963.478187 0.000754961 1008.249022 44.771591 1008.249022 100.00076 L 1008.249022 703.651832 C 1008.249022 758.875793 963.478187 803.651837 908.249017 803.651837 L 99.998976 803.651837 C 44.769807 803.651837 -0.00102858 758.875793 -0.00102858 703.651832 L -0.00102858 100.00076 C -0.00102858 44.771591 44.769807 0.000754961 99.998976 0.000754961 Z M 99.998976 0.000754961 " stroke="#374b6a" stroke-width="62" stroke-opacity="1" stroke-miterlimit="4"/></g></g><path fill="#374b6a" d="M 185.273438 594.601562 L 222.464844 433.601562 C 223.933594 426.753906 229.804688 421.371094 237.144531 420.390625 L 445.125 398.859375 C 450.996094 398.371094 450.996094 389.5625 445.125 388.582031 L 237.144531 368.519531 C 229.804688 368.027344 223.933594 362.644531 222.464844 355.792969 L 185.273438 195.285156 C 181.847656 181.582031 196.527344 170.328125 209.253906 176.6875 L 615.910156 380.261719 C 628.144531 386.625 628.144531 404.242188 615.910156 410.601562 L 209.253906 613.199219 C 196.527344 619.558594 181.847656 608.304688 185.273438 594.601562 Z M 185.273438 594.601562 " fill-opacity="1" fill-rule="nonzero"/></svg>